<?xml version="1.0"?>
<!DOCTYPE svg PUBLIC "-//W3C//DTD SVG 1.1//EN"
    "http://www.w3.org/Graphics/SVG/1.1/DTD/svg11.dtd">
<svg width="800" height="600" viewBox="-4 -3 8 6" style="transform: scale(1,-1);">
    
    <!-- Figura 1 -->
    <g id="figure1" transform="translate(-2,1.5)">

      <!-- Lewy ośmiokąt -->
      <g transform="translate(-1.05,0.21)">
        <g>
          <animateTransform attributeName="transform"
            attributeType="XML"
            type="rotate"
            from="0 0 0" to="360 0 0"
            dur="8s"
            repeatCount="indefinite" />
          <g transform="scale(0.49)">
            <polygon points="1,0 0.7071,0.7071 0,1 -0.7071,0.7071 -1,0 -0.7071,-0.7071 0,-1 0.7071,-0.7071"
              fill="none" stroke="black" stroke-width="0.1" />
            <line x1="0" y1="1" x2="0" y2="-1" stroke="black" stroke-width="0.1" />
            <line x1="0.7071" y1="0.7071" x2="-0.7071" y2="-0.7071" stroke="black" stroke-width="0.1" />
            <line x1="1" y1="0" x2="-1" y2="0" stroke="black" stroke-width="0.1" />
            <line x1="0.7071" y1="-0.7071" x2="-0.7071" y2="0.7071" stroke="black" stroke-width="0.1" />
          </g>
        </g>
      </g>
      
      <!-- Prawy ośmiokąt -->
      <g transform="translate(1.05,-0.21)">
        <g>
          <animateTransform attributeName="transform"
            attributeType="XML"
            type="rotate"
            from="0 0 0" to="360 0 0"
            dur="8s"
            repeatCount="indefinite" />
          <g transform="scale(0.49)">
            <polygon points="1,0 0.7071,0.7071 0,1 -0.7071,0.7071 -1,0 -0.7071,-0.7071 0,-1 0.7071,-0.7071"
              fill="none" stroke="black" stroke-width="0.1" />
            <line x1="0" y1="1" x2="0" y2="-1" stroke="black" stroke-width="0.1" />
            <line x1="0.7071" y1="0.7071" x2="-0.7071" y2="-0.7071" stroke="black" stroke-width="0.1" />
            <line x1="1" y1="0" x2="-1" y2="0" stroke="black" stroke-width="0.1" />
            <line x1="0.7071" y1="-0.7071" x2="-0.7071" y2="0.7071" stroke="black" stroke-width="0.1" />
          </g>
        </g>
      </g>
      
      <!-- Belka -->
      <g transform="rotate(-11)">
        <!-- Szerokość = 3.3*0.7 = 2.31, wysokość = 0.15*0.7 = 0.105 -->
        <rect x="-1.155" y="-0.0525" width="2.31" height="0.105" fill="red" />
      </g>
      
      <!-- Trójkąt -->
      <g transform="translate(0,-1.36) scale(0.7,1.4)">
        <polygon points="-0.5,0 0.5,0 0,1" fill="purple" stroke="none" />
      </g>
      
    </g>
    
    <!-- Figura 2 -->
    <g id="figure2" transform="translate(2,1.5)">
      
      <!-- Lewy ośmiokąt -->
      <g transform="translate(-0.9,0.18)">
        <g>
          <animateTransform attributeName="transform"
            attributeType="XML"
            type="rotate"
            from="0 0 0" to="360 0 0"
            dur="8s"
            repeatCount="indefinite" />
          <g transform="scale(0.42)">
            <polygon points="1,0 0.7071,0.7071 0,1 -0.7071,0.7071 -1,0 -0.7071,-0.7071 0,-1 0.7071,-0.7071"
              fill="none" stroke="black" stroke-width="0.1" />
            <line x1="0" y1="1" x2="0" y2="-1" stroke="black" stroke-width="0.1" />
            <line x1="0.7071" y1="0.7071" x2="-0.7071" y2="-0.7071" stroke="black" stroke-width="0.1" />
            <line x1="1" y1="0" x2="-1" y2="0" stroke="black" stroke-width="0.1" />
            <line x1="0.7071" y1="-0.7071" x2="-0.7071" y2="0.7071" stroke="black" stroke-width="0.1" />
          </g>
        </g>
      </g>
      
      <!-- Prawy ośmiokąt -->
      <g transform="translate(0.9,-0.18)">
        <g>
          <animateTransform attributeName="transform"
            attributeType="XML"
            type="rotate"
            from="0 0 0" to="360 0 0"
            dur="8s"
            repeatCount="indefinite" />
          <g transform="scale(0.42)">
            <polygon points="1,0 0.7071,0.7071 0,1 -0.7071,0.7071 -1,0 -0.7071,-0.7071 0,-1 0.7071,-0.7071"
              fill="none" stroke="black" stroke-width="0.1" />
            <line x1="0" y1="1" x2="0" y2="-1" stroke="black" stroke-width="0.1" />
            <line x1="0.7071" y1="0.7071" x2="-0.7071" y2="-0.7071" stroke="black" stroke-width="0.1" />
            <line x1="1" y1="0" x2="-1" y2="0" stroke="black" stroke-width="0.1" />
            <line x1="0.7071" y1="-0.7071" x2="-0.7071" y2="0.7071" stroke="black" stroke-width="0.1" />
          </g>
        </g>
      </g>
      
      <!-- Belka -->
      <g transform="rotate(-11)">
        <!-- Szerokość = 3.3*0.6 = 1.98, wysokość = 0.15*0.6 = 0.09 -->
        <rect x="-0.99" y="-0.045" width="1.98" height="0.09" fill="red" />
      </g>
      
      <!-- Trójkąt -->
      <g transform="translate(0,-1.18) scale(0.6,1.2)">
        <polygon points="-0.5,0 0.5,0 0,1" fill="green" stroke="none" />
      </g>
    </g>
    
    <!-- Figura 3 -->
    <g id="figure3" transform="translate(0,-0.6)">
      
      <!-- Lewy ośmiokąt -->
      <g transform="translate(-1.2,0.24)">
        <g>
          <animateTransform attributeName="transform"
            attributeType="XML"
            type="rotate"
            from="0 0 0" to="360 0 0"
            dur="8s"
            repeatCount="indefinite" />
          <g transform="scale(0.56)">
            <polygon points="1,0 0.7071,0.7071 0,1 -0.7071,0.7071 -1,0 -0.7071,-0.7071 0,-1 0.7071,-0.7071"
              fill="none" stroke="black" stroke-width="0.1" />
            <line x1="0" y1="1" x2="0" y2="-1" stroke="black" stroke-width="0.1" />
            <line x1="0.7071" y1="0.7071" x2="-0.7071" y2="-0.7071" stroke="black" stroke-width="0.1" />
            <line x1="1" y1="0" x2="-1" y2="0" stroke="black" stroke-width="0.1" />
            <line x1="0.7071" y1="-0.7071" x2="-0.7071" y2="0.7071" stroke="black" stroke-width="0.1" />
          </g>
        </g>
      </g>
      
      <!-- Prawy ośmiokąt -->
      <g transform="translate(1.2,-0.24)">
        <g>
          <animateTransform attributeName="transform"
            attributeType="XML"
            type="rotate"
            from="0 0 0" to="360 0 0"
            dur="8s"
            repeatCount="indefinite" />
          <g transform="scale(0.56)">
            <polygon points="1,0 0.7071,0.7071 0,1 -0.7071,0.7071 -1,0 -0.7071,-0.7071 0,-1 0.7071,-0.7071"
              fill="none" stroke="black" stroke-width="0.1" />
            <line x1="0" y1="1" x2="0" y2="-1" stroke="black" stroke-width="0.1" />
            <line x1="0.7071" y1="0.7071" x2="-0.7071" y2="-0.7071" stroke="black" stroke-width="0.1" />
            <line x1="1" y1="0" x2="-1" y2="0" stroke="black" stroke-width="0.1" />
            <line x1="0.7071" y1="-0.7071" x2="-0.7071" y2="0.7071" stroke="black" stroke-width="0.1" />
          </g>
        </g>
      </g>
      
      <!-- Belka -->
      <g transform="rotate(-11)">
        <!-- Szerokość = 3.3*0.8 = 2.64, wysokość = 0.15*0.8 = 0.12 -->
        <rect x="-1.32" y="-0.06" width="2.64" height="0.12" fill="red" />
      </g>
      
      <!-- Trójkąt -->
      <g transform="translate(0,-1.57) scale(0.8,1.6)">
        <polygon points="-0.5,0 0.5,0 0,1" fill="blue" stroke="none" />
      </g>
    </g>
    
  </svg>